<svg xmlns="http://www.w3.org/2000/svg" width="291" height="159" viewBox="0 0 291 159">
  <path fill="#0291DB" fill-rule="evenodd" d="M187.689655,159 L226.310345,159 C237.736926,159 247,168.178163 247,179.5 C247,190.821837 237.736926,200 226.310345,200 L187.689655,200 C176.263074,200 167,190.821837 167,179.5 C167,168.178163 176.263074,159 187.689655,159 Z M181.736552,180.358267 C181.736552,181.637473 181.93517,182.830561 182.332414,183.937567 C182.729657,185.044572 183.300686,186.008063 184.045517,186.828067 C184.790349,187.648071 185.704822,188.291764 186.788966,188.759167 C187.873109,189.226569 189.093786,189.460267 190.451034,189.460267 C191.824834,189.460267 193.04965,189.226569 194.125517,188.759167 C195.201385,188.291764 196.11172,187.648071 196.856552,186.828067 C197.601383,186.008063 198.172412,185.044572 198.569655,183.937567 C198.966899,182.830561 199.165517,181.637473 199.165517,180.358267 C199.165517,179.04626 198.966899,177.828572 198.569655,176.705167 C198.172412,175.581761 197.601383,174.601871 196.856552,173.765467 C196.11172,172.929062 195.201385,172.273069 194.125517,171.797467 C193.04965,171.321864 191.824834,171.084067 190.451034,171.084067 C189.093786,171.084067 187.873109,171.321864 186.788966,171.797467 C185.704822,172.273069 184.790349,172.929062 184.045517,173.765467 C183.300686,174.601871 182.729657,175.581761 182.332414,176.705167 C181.93517,177.828572 181.736552,179.04626 181.736552,180.358267 Z M185.634483,180.358267 C185.634483,179.587463 185.721378,178.84127 185.895172,178.119667 C186.068966,177.398063 186.346205,176.754369 186.726897,176.188567 C187.107588,175.622764 187.604135,175.171768 188.216552,174.835567 C188.828969,174.499365 189.573789,174.331267 190.451034,174.331267 C191.32828,174.331267 192.0731,174.499365 192.685517,174.835567 C193.297934,175.171768 193.794481,175.622764 194.175172,176.188567 C194.555864,176.754369 194.833103,177.398063 195.006897,178.119667 C195.180691,178.84127 195.267586,179.587463 195.267586,180.358267 C195.267586,181.09627 195.180691,181.813763 195.006897,182.510767 C194.833103,183.20777 194.555864,183.835064 194.175172,184.392667 C193.794481,184.950269 193.297934,185.397165 192.685517,185.733367 C192.0731,186.069568 191.32828,186.237667 190.451034,186.237667 C189.573789,186.237667 188.828969,186.069568 188.216552,185.733367 C187.604135,185.397165 187.107588,184.950269 186.726897,184.392667 C186.346205,183.835064 186.068966,183.20777 185.895172,182.510767 C185.721378,181.813763 185.634483,181.09627 185.634483,180.358267 Z M204.478621,183.236467 L200.704828,183.236467 C200.688276,184.318872 200.886894,185.253663 201.30069,186.040867 C201.714485,186.828071 202.2731,187.475864 202.976552,187.984267 C203.680004,188.492669 204.49103,188.865765 205.409655,189.103567 C206.32828,189.341368 207.275857,189.460267 208.252414,189.460267 C209.460696,189.460267 210.524133,189.320868 211.442759,189.042067 C212.361384,188.763265 213.131031,188.373769 213.751724,187.873567 C214.372417,187.373364 214.839998,186.77887 215.154483,186.090067 C215.468967,185.401263 215.626207,184.655071 215.626207,183.851467 C215.626207,182.867462 215.415175,182.05977 214.993103,181.428367 C214.571032,180.796964 214.070348,180.292669 213.491034,179.915467 C212.911721,179.538265 212.328279,179.263568 211.74069,179.091367 C211.153101,178.919166 210.693795,178.800267 210.362759,178.734667 C209.253788,178.455865 208.355866,178.226268 207.668966,178.045867 C206.982066,177.865466 206.44414,177.685068 206.055172,177.504667 C205.666205,177.324266 205.405518,177.127468 205.273103,176.914267 C205.140689,176.701066 205.074483,176.422268 205.074483,176.077867 C205.074483,175.700665 205.157241,175.389068 205.322759,175.143067 C205.488277,174.897065 205.699309,174.692067 205.955862,174.528067 C206.212415,174.364066 206.497929,174.249267 206.812414,174.183667 C207.126898,174.118066 207.441378,174.085267 207.755862,174.085267 C208.235864,174.085267 208.678619,174.126266 209.084138,174.208267 C209.489657,174.290267 209.849654,174.429666 210.164138,174.626467 C210.478622,174.823268 210.731034,175.093865 210.921379,175.438267 C211.111725,175.782668 211.223448,176.217264 211.256552,176.742067 L215.030345,176.742067 C215.030345,175.725262 214.835864,174.86017 214.446897,174.146767 C214.057929,173.433363 213.532417,172.847069 212.870345,172.387867 C212.208273,171.928664 211.451039,171.596568 210.598621,171.391567 C209.746203,171.186566 208.856556,171.084067 207.929655,171.084067 C207.135168,171.084067 206.340694,171.190666 205.546207,171.403867 C204.75172,171.617068 204.040003,171.945064 203.411034,172.387867 C202.782066,172.830669 202.273105,173.384163 201.884138,174.048367 C201.49517,174.71257 201.30069,175.495662 201.30069,176.397667 C201.30069,177.201271 201.453792,177.885964 201.76,178.451767 C202.066208,179.017569 202.467584,179.489065 202.964138,179.866267 C203.460692,180.243469 204.023445,180.550965 204.652414,180.788767 C205.281382,181.026568 205.926893,181.227466 206.588966,181.391467 C207.234486,181.571868 207.871721,181.735866 208.50069,181.883467 C209.129658,182.031067 209.692411,182.203266 210.188966,182.400067 C210.68552,182.596868 211.086895,182.842865 211.393103,183.138067 C211.699312,183.433268 211.852414,183.818664 211.852414,184.294267 C211.852414,184.737069 211.736553,185.101965 211.504828,185.388967 C211.273102,185.675968 210.98345,185.901466 210.635862,186.065467 C210.288274,186.229467 209.915864,186.340166 209.518621,186.397567 C209.121377,186.454967 208.748967,186.483667 208.401379,186.483667 C207.888273,186.483667 207.391727,186.422167 206.911724,186.299167 C206.431722,186.176166 206.013795,185.987568 205.657931,185.733367 C205.302067,185.479165 205.016553,185.147069 204.801379,184.737067 C204.586206,184.327065 204.478621,183.82687 204.478621,183.236467 Z M220.591724,183.236467 L216.817931,183.236467 C216.801379,184.318872 216.999998,185.253663 217.413793,186.040867 C217.827588,186.828071 218.386203,187.475864 219.089655,187.984267 C219.793107,188.492669 220.604133,188.865765 221.522759,189.103567 C222.441384,189.341368 223.388961,189.460267 224.365517,189.460267 C225.573799,189.460267 226.637237,189.320868 227.555862,189.042067 C228.474487,188.763265 229.244135,188.373769 229.864828,187.873567 C230.48552,187.373364 230.953102,186.77887 231.267586,186.090067 C231.582071,185.401263 231.73931,184.655071 231.73931,183.851467 C231.73931,182.867462 231.528278,182.05977 231.106207,181.428367 C230.684136,180.796964 230.183451,180.292669 229.604138,179.915467 C229.024825,179.538265 228.441382,179.263568 227.853793,179.091367 C227.266204,178.919166 226.806898,178.800267 226.475862,178.734667 C225.366891,178.455865 224.468969,178.226268 223.782069,178.045867 C223.095169,177.865466 222.557243,177.685068 222.168276,177.504667 C221.779308,177.324266 221.518621,177.127468 221.386207,176.914267 C221.253792,176.701066 221.187586,176.422268 221.187586,176.077867 C221.187586,175.700665 221.270344,175.389068 221.435862,175.143067 C221.60138,174.897065 221.812413,174.692067 222.068966,174.528067 C222.325519,174.364066 222.611033,174.249267 222.925517,174.183667 C223.240002,174.118066 223.554481,174.085267 223.868966,174.085267 C224.348968,174.085267 224.791722,174.126266 225.197241,174.208267 C225.602761,174.290267 225.962757,174.429666 226.277241,174.626467 C226.591726,174.823268 226.844137,175.093865 227.034483,175.438267 C227.224829,175.782668 227.336552,176.217264 227.369655,176.742067 L231.143448,176.742067 C231.143448,175.725262 230.948967,174.86017 230.56,174.146767 C230.171033,173.433363 229.645521,172.847069 228.983448,172.387867 C228.321376,171.928664 227.564142,171.596568 226.711724,171.391567 C225.859306,171.186566 224.96966,171.084067 224.042759,171.084067 C223.248272,171.084067 222.453797,171.190666 221.65931,171.403867 C220.864824,171.617068 220.153107,171.945064 219.524138,172.387867 C218.895169,172.830669 218.386209,173.384163 217.997241,174.048367 C217.608274,174.71257 217.413793,175.495662 217.413793,176.397667 C217.413793,177.201271 217.566895,177.885964 217.873103,178.451767 C218.179312,179.017569 218.580687,179.489065 219.077241,179.866267 C219.573796,180.243469 220.136549,180.550965 220.765517,180.788767 C221.394486,181.026568 222.039997,181.227466 222.702069,181.391467 C223.347589,181.571868 223.984824,181.735866 224.613793,181.883467 C225.242762,182.031067 225.805515,182.203266 226.302069,182.400067 C226.798623,182.596868 227.199998,182.842865 227.506207,183.138067 C227.812415,183.433268 227.965517,183.818664 227.965517,184.294267 C227.965517,184.737069 227.849656,185.101965 227.617931,185.388967 C227.386206,185.675968 227.096553,185.901466 226.748966,186.065467 C226.401378,186.229467 226.028968,186.340166 225.631724,186.397567 C225.234481,186.454967 224.862071,186.483667 224.514483,186.483667 C224.001377,186.483667 223.50483,186.422167 223.024828,186.299167 C222.544825,186.176166 222.126898,185.987568 221.771034,185.733367 C221.415171,185.479165 221.129656,185.147069 220.914483,184.737067 C220.699309,184.327065 220.591724,183.82687 220.591724,183.236467 Z M187.689655,164.466667 L226.310345,164.466667 C234.689838,164.466667 241.482759,171.197319 241.482759,179.5 C241.482759,187.802681 234.689838,194.533333 226.310345,194.533333 L187.689655,194.533333 C179.310162,194.533333 172.517241,187.802681 172.517241,179.5 C172.517241,171.197319 179.310162,164.466667 187.689655,164.466667 Z M187.689655,161.733333 C177.786618,161.733333 169.758621,169.687741 169.758621,179.5 C169.758621,189.312259 177.786618,197.266667 187.689655,197.266667 L226.310345,197.266667 C236.213382,197.266667 244.241379,189.312259 244.241379,179.5 C244.241379,169.687741 236.213382,161.733333 226.310345,161.733333 L187.689655,161.733333 Z M120.573847,153.961119 C119.994368,152.668855 119.418964,151.374955 118.859861,150.072871 C117.397716,146.66421 116.040708,143.208899 114.85241,139.693845 C109.01524,122.427932 106.652498,100.948045 121.279654,87.2872109 C125.940751,82.9332905 131.701309,80.1507098 137.858781,78.6448426 C139.349452,78.2798335 144.070045,77.7454143 144.750587,77.5039845 C146.395296,76.9171873 145.695194,72.6254657 145.421348,71.4003118 C143.999954,65.0257467 135.732395,62.6580979 130.0729,63.2007012 C124.206389,63.7629461 119.129632,67.3000973 115.233839,71.5549906 C111.673019,75.4448747 108.867721,80.0557747 106.800017,84.9040124 C98.8160854,103.619323 102.643417,134.199067 107.820421,142.796423 C106.361536,140.453326 103.146284,138.339383 101.140521,136.426768 C99.2024047,134.577989 97.2357625,132.761946 95.3449172,130.86488 C91.3725119,126.880879 87.6869936,122.550693 85.0430702,117.547776 C81.2915353,110.448103 78.5563297,102.375346 78.5066135,94.2968591 C78.4772728,89.6221235 79.068977,84.3286729 81.6819296,80.3242119 C76.8121879,79.3830449 72.1934721,82.1901778 68.6375419,85.2395589 C64.5070229,88.7791652 60.5232074,93.8467358 61.0464499,99.570668 C61.6251138,105.894492 65.4597807,111.931874 68.4598676,117.370182 C74.2750321,127.911253 82.4439729,136.828605 91.6284281,144.532262 C96.5943421,148.697131 101.973471,152.388142 107.593846,155.602841 C111.372276,157.763433 116.330855,160.319316 120.665944,158.214375 C121.062859,158.022868 121.801266,157.743792 121.918629,157.279755 C122.040882,156.792804 121.648858,156.161813 121.458958,155.741152 C121.185927,155.137168 120.845249,154.565921 120.573847,153.961119 M224.974345,106.463939 C226.973588,102.61252 232.089466,96.8083838 230.571085,92.0992751 C229.310249,88.1930228 223.714325,85.7148891 219.648193,88.9868767 C214.358716,93.372715 214.661088,118.823508 216.542153,122.562805 C217.541367,126.739131 224.321515,129.77951 227.263735,125.697301 C227.806538,124.944367 227.777198,123.698753 226.967068,123.249448 C226.463386,122.969553 225.845601,123.075127 225.268567,123.041573 C222.593673,122.88362 221.989744,117.221069 222.077766,115.254439 C222.216319,112.136312 223.561102,109.185958 224.974345,106.463939 M202.567258,126.170421 C201.686222,119.119034 208.92278,108.956067 208.680719,100.791648 C208.566617,96.91404 207.489976,92.3440604 203.788157,90.3774305 C203.27714,90.1065381 202.726187,89.9076654 202.153228,89.7668996 C200.449837,89.3478756 198.545136,89.4346267 196.874346,89.5974895 C194.900369,89.7898149 192.964698,90.2996819 191.165134,91.1410034 C187.800734,92.7139799 185.104649,95.3427003 182.733757,98.155562 C181.560129,99.5476708 180.451703,100.992976 179.333496,102.429279 C179.422333,102.314702 178.66192,101.126376 178.573083,100.972516 C178.282121,100.470833 177.967523,99.981426 177.63092,99.5092057 C176.961789,98.5696755 176.203821,97.689889 175.35294,96.9124032 C173.817443,95.5088367 171.867102,94.3450633 169.747236,94.2182103 C168.588278,94.1486458 167.41791,94.3974413 166.36246,94.878664 C165.51973,95.2624965 164.456944,95.8501121 163.969562,96.674247 C163.25479,97.8838512 163.586503,99.4813799 163.950817,100.747454 C165.079619,104.674167 167.355154,108.206407 169.039799,111.901511 C169.215843,112.288617 169.386997,112.67736 169.549186,113.070195 C171.284363,117.260434 173.381408,121.52433 173.625914,125.761218 C173.792993,128.657557 172.035811,132.755317 174.441748,133.129328 C182.272456,134.068858 180.091464,120.557792 181.777739,113.479398 C183.117631,107.854493 186.597765,103.693716 192.086106,101.733633 C192.588974,101.554403 193.167637,101.520029 193.642794,101.763096 C194.249983,102.073272 194.576806,102.77792 194.620817,103.461289 C194.841688,106.913326 193.384433,111.02909 192.721007,114.413199 C191.949998,118.342367 191.262937,122.31491 191.110528,126.324281 C190.822826,133.924 193.064945,141.640751 201.340653,143.455976 C205.407601,144.348039 209.159951,144.510083 212.438774,141.585918 C215.354914,138.984205 217.059935,134.914272 214.389116,131.491698 C208.913815,131.810057 203.355382,132.469693 202.567258,126.170421 M277.295503,46.7482834 C291.762915,46.5117641 264.917801,84.3057575 253.585769,83.992308 C258.546793,71.7800522 270.029604,46.8374897 277.295503,46.7482834 M261.172786,137.558624 C259.337362,137.074127 257.534539,136.726305 255.8882,135.779409 C254.650185,135.066577 253.524643,134.165512 252.543359,133.125318 C250.571827,131.032654 249.215635,128.429304 248.297108,125.717924 C246.966181,121.791212 246.480429,117.59197 246.460054,113.459838 C246.435603,108.240862 247.13,102.997334 248.429141,97.9469503 C249.020845,95.6464108 249.742137,93.3745155 250.654959,91.1811871 C251.001342,90.3464129 251.73812,88.8339985 251.73812,88.8339985 C251.73812,88.8339985 254.776513,88.7153296 255.884939,88.5140017 C267.489188,86.4082428 277.775549,76.7060385 283.464386,66.7362155 C287.366699,59.8959773 291.464617,48.7754753 283.196244,43.3666294 C270.220318,34.877303 258.445731,51.314171 253.333113,59.7953134 C250.487065,64.5158797 248.134919,69.5228882 246.002828,74.6035533 C245.091636,76.7723294 244.224455,78.9582921 243.371944,81.150802 C243.071202,81.9250142 242.071988,84.3810509 242.071988,84.3810509 C242.071988,84.3810509 240.47781,84.1126137 240.053185,84.0078577 C239.037671,83.7582439 238.035197,83.4415207 237.063693,83.0535962 C234.357828,81.9733002 231.079005,80.1065159 230.287621,77.0505875 C241.08011,80.6949498 246.054174,62.3601981 234.362719,60.2683521 C227.501069,59.3239115 223.597125,65.0748511 224.309452,71.4485978 C224.725112,75.1657983 226.164437,79.0483168 228.762719,81.7891588 C231.204518,84.3655012 234.516757,85.9474802 237.810251,87.1186193 C238.542139,87.3788724 240.023844,87.8461823 240.023844,87.8461823 L240.859239,88.0687888 C240.859239,88.0687888 240.496556,89.4518951 240.397938,89.7939888 C239.789934,91.914479 239.199859,94.0390612 238.652166,96.1751011 C237.515214,100.605952 236.564086,105.093272 236.018023,109.6387 C235.48826,114.037633 235.410019,118.439021 235.718096,122.85514 C236.2935,131.122678 237.827367,141.671114 244.471406,147.408959 C247.519579,150.041772 253.340448,151.925743 257.056938,149.612109 C260.30316,147.590646 261.144261,143.29074 262.324409,139.952462 C262.56484,139.271548 262.603146,138.400764 262.052192,137.936727 C261.805241,137.728852 261.484124,137.641283 261.172786,137.558624 M311.395839,62.813104 C315.498647,64.604595 304.050883,93.739852 279.659793,102.070408 C284.234498,86.4110254 305.709447,60.2752267 311.395839,62.813104 M294.34563,142.990712 C292.986177,142.507853 291.675626,141.850673 290.442501,141.097739 C288.09932,139.666347 286.043841,137.796289 284.380386,135.607871 C280.893733,131.023978 279.214792,125.315596 278.481275,119.664502 C278.041164,116.277119 277.931137,112.851271 278.030569,109.438518 C308.406347,102.920732 323.157386,69.3873602 318.386261,61.1370083 C314.053618,53.6436821 305.395665,55.9196695 297.723071,60.9111283 C292.667505,64.2003024 273.550406,77.4903989 268.143567,105.407868 C266.295103,105.875996 264.392847,105.856354 262.537047,105.450425 C261.812495,105.291654 260.721999,104.676213 259.996632,104.922553 C259.240293,105.179532 259.055284,106.01758 259.30305,106.709952 C259.561411,107.431786 260.285963,107.817255 260.911898,108.183901 C262.798669,109.288749 264.982921,109.89437 267.126422,110.239737 C265.689543,123.068253 269.841253,143.783748 278.030569,152.417932 C280.900253,155.445216 285.197851,156.568888 289.194707,155.462403 C292.876965,154.441032 298.93908,150.723832 297.526651,146.0982 C297.048235,144.531771 295.833856,143.519403 294.34563,142.990712 M328.480197,118.163054 C327.186761,121.283636 325.026144,124.206983 322.903833,126.798875 C320.664975,129.533988 318.153084,132.297746 314.713702,132.640658 C314.047016,132.706949 313.344469,132.683215 312.601986,132.548996 C308.647511,131.836983 306.559431,129.579819 306.782747,125.418224 C307.016657,121.086401 308.922988,116.867517 312.016802,113.839415 C318.295713,107.691548 333.328748,106.466394 328.480197,118.163054 M346.962395,107.78321 C342.37628,107.126848 339.101532,111.619079 335.954741,113.104486 C338.668756,105.809214 332.56752,101.105016 331.065439,99.5966933 C310.05505,85.6526903 280.360628,122.548074 295.190724,136.84481 C301.601667,141.904196 311.731545,143.156358 318.835256,137.663216 C319.833655,149.168369 342.307003,150.965589 342.477342,139.709231 C315.113061,146.785989 347.463632,123.752768 351.445817,115.149683 C353.048961,111.688643 351.058683,108.366733 346.962395,107.78321 M146.403772,128.927795 C145.429009,130.549876 143.979904,131.833955 141.886119,132.545968 C133.464522,135.41039 129.679571,125.891508 129.712987,119.5595 C129.731733,116.105827 130.808373,112.161928 133.342269,109.650239 C135.387153,107.623047 138.916188,106.400349 141.974141,106.900395 C143.099683,107.085355 144.124163,107.595222 144.944887,108.332606 C146.691474,109.902308 147.164186,112.093182 147.533389,114.252955 C147.896888,116.375082 148.152804,118.521761 148.17644,120.677443 C148.207411,123.460024 147.895258,126.445569 146.403772,128.927795 M165.916155,133.321817 C164.291006,132.626172 162.572945,131.747204 161.418877,130.364098 C160.096101,128.778845 159.298196,126.133756 158.784734,124.153214 C157.532864,119.321344 157.896363,114.261139 158.263937,109.338427 C158.446501,106.884845 158.676336,104.436174 158.920027,101.988321 C159.118892,99.9938658 159.333242,98.0018654 159.516622,96.0065913 C159.614424,94.9352977 159.805139,93.7821635 159.693481,92.7035043 C159.689406,92.6691313 159.685331,92.6347582 159.679626,92.6003851 C159.114817,89.3275792 154.769948,87.9673882 151.412067,90.3661365 C149.759208,91.5454597 148.910772,93.3966943 148.427466,95.3199486 C148.18133,96.3036727 148.016696,97.3054018 147.846357,98.3046756 C147.685798,99.2450242 147.602666,100.322865 147.253023,101.215746 C147.008517,101.838553 146.820247,101.175644 146.631163,100.829458 C146.402142,100.41289 146.144596,100.011871 145.859339,99.6321303 C145.317351,98.9094777 144.674301,98.2645737 143.956269,97.7178785 C142.490863,96.6015725 140.736126,95.9165666 138.925968,95.6227589 C137.432037,95.3796922 135.87046,95.3101277 134.348818,95.481993 C133.515868,95.5761097 132.694329,95.7430646 131.902945,95.9934968 C125.981828,97.8692836 122.529405,104.135001 120.641005,109.786095 C119.751003,112.450825 119.222056,115.233406 118.993035,118.031536 C118.760755,120.866495 118.834106,123.728461 119.209015,126.548688 C119.568439,129.262523 120.207414,131.947713 121.180548,134.507688 C122.071364,136.85324 123.247437,139.109585 124.800049,141.084399 C128.004706,145.16088 132.698404,147.476969 137.911269,146.375394 C143.710133,145.151059 149.132458,139.381296 150.89942,133.830866 C151.124365,133.122126 151.137406,131.488588 152.041262,131.875694 C152.513974,132.07784 153.288242,134.167231 153.618325,134.666458 C154.789508,136.430942 156.244318,138.030107 158.064257,139.134956 C160.89971,140.853609 170.146106,142.373389 169.278111,136.579073 C168.982259,134.605078 167.514408,134.006005 165.916155,133.321817" transform="translate(-61 -41)"/>
</svg>
